<svg width="1920" height="1080" viewBox="0 0 1920 1080" xmlns="http://www.w3.org/2000/svg"><rect width="1920" height="1080" fill="#188677"/><path d="M 0,1080 C 0,1080 0,135 0,135 C 40.95452871870398,126.23711340206185 81.90905743740797,117.47422680412372 203,109 C 324.09094256259203,100.52577319587628 525.3182989690722,92.340206185567 650,107 C 774.6817010309278,121.659793814433 822.8177466863033,159.16494845360825 866,157 C 909.1822533136967,154.83505154639175 947.4107142857142,113.00000000000001 1090,98 C 1232.5892857142858,82.99999999999999 1479.5393961708396,94.83505154639174 1616,107 C 1752.4606038291604,119.16494845360826 1778.4317010309276,131.65979381443302 1801,148 C 1823.5682989690724,164.34020618556698 1842.7337997054492,184.5257731958763 1862,183 C 1881.2662002945508,181.4742268041237 1900.6331001472754,158.23711340206185 1920,135 C 1920,135 1920,1080 1920,1080 Z" fill="#ffffff" opacity="0.075"/><path d="M 0,1080 C 0,1080 0,270 0,270 C 9.370213549337265,260.905559646539 18.74042709867453,251.81111929307806 65,253 C 111.25957290132547,254.18888070692194 194.40850515463916,265.6610824742268 303,261 C 411.59149484536084,256.3389175257732 545.6255522827687,235.54455081001475 616,246 C 686.3744477172313,256.45544918998525 693.0892857142858,298.1607142857142 891,299 C 1088.9107142857142,299.8392857142858 1478.0173048600886,259.8125920471282 1547,243 C 1615.9826951399114,226.18740795287184 1364.8414948453606,232.58891752577316 1443,236 C 1521.1585051546394,239.41108247422684 1928.6167157584687,239.8317378497791 2063,245 C 2197.3832842415313,250.1682621502209 2058.6916421207657,260.08413107511046 1920,270 C 1920,270 1920,1080 1920,1080 Z" fill="#ffffff" opacity="0.15"/><path d="M 0,1080 C 0,1080 0,405 0,405 C 62.65942562592048,384.64874815905745 125.31885125184095,364.2974963181149 172,362 C 218.68114874815905,359.7025036818851 249.3840206185567,375.4587628865979 358,379 C 466.6159793814433,382.5412371134021 653.1450662739323,373.86745213549347 828,392 C 1002.8549337260677,410.13254786450653 1166.0357142857142,455.07142857142844 1254,454 C 1341.9642857142858,452.92857142857156 1354.7120765832108,405.84683357879237 1443,389 C 1531.2879234167892,372.15316642120763 1695.1159793814434,385.5412371134021 1815,390 C 1934.8840206185566,394.4587628865979 2010.8240058910162,389.98821796759944 2021,391 C 2031.1759941089838,392.01178203240056 1975.587997054492,398.5058910162003 1920,405 C 1920,405 1920,1080 1920,1080 Z" fill="#ffffff" opacity="0.22499999999999998"/><path d="M 0,1080 C 0,1080 0,540 0,540 C 180.85751104565537,548.4979749631812 361.71502209131074,556.9959499263623 440,552 C 518.2849779086893,547.0040500736377 493.99742268041234,528.514175257732 499,528 C 504.00257731958766,527.485824742268 538.2952871870397,544.9473490427098 652,545 C 765.7047128129603,545.0526509572902 958.8214285714287,527.6964285714287 1155,528 C 1351.1785714285713,528.3035714285713 1550.4189985272458,546.2669366715758 1569,541 C 1587.5810014727542,535.7330633284242 1425.5025773195878,507.23582474226805 1492,516 C 1558.4974226804122,524.764175257732 1853.5706921944034,570.789764359352 1963,581 C 2072.4293078055966,591.210235640648 1996.2146539027983,565.605117820324 1920,540 C 1920,540 1920,1080 1920,1080 Z" fill="#ffffff" opacity="0.3"/><path d="M 0,1080 C 0,1080 0,675 0,675 C -10.588181148748163,658.3101988217968 -21.176362297496325,641.6203976435935 63,636 C 147.17636229749633,630.3796023564065 326.11726804123714,635.8286082474227 501,640 C 675.8827319587629,644.1713917525773 846.7072901325478,647.0651693667157 950,643 C 1053.2927098674522,638.9348306332843 1089.0535714285716,627.9107142857142 1124,639 C 1158.9464285714284,650.0892857142858 1193.0784241531665,683.2919734904272 1264,680 C 1334.9215758468335,676.7080265095728 1442.6327319587629,636.9213917525772 1545,633 C 1647.3672680412371,629.0786082474228 1744.3906480117819,661.0224594992637 1806,674 C 1867.6093519882181,686.9775405007363 1893.804675994109,680.9887702503681 1920,675 C 1920,675 1920,1080 1920,1080 Z" fill="#ffffff" opacity="0.375"/><path d="M 0,1080 C 0,1080 0,810 0,810 C 100.39009572901327,835.4539764359351 200.78019145802654,860.9079528718704 288,847 C 375.21980854197346,833.0920471281296 449.26932989690715,779.8221649484536 497,760 C 544.7306701030928,740.1778350515464 566.1424889543447,753.8033873343152 654,783 C 741.8575110456553,812.1966126656848 896.1607142857144,856.9642857142858 1082,860 C 1267.8392857142856,863.0357142857142 1485.2146539027983,824.3394698085418 1491,799 C 1496.7853460972017,773.6605301914582 1290.9806701030925,761.6778350515464 1424,766 C 1557.0193298969075,770.3221649484536 2028.862665684831,790.9491899852725 2168,801 C 2307.137334315169,811.0508100147275 2113.5686671575845,810.5254050073638 1920,810 C 1920,810 1920,1080 1920,1080 Z" fill="#ffffff" opacity="0.44999999999999996"/><path d="M 0,1080 C 0,1080 0,945 0,945 C 105.89635493372606,953.8321060382916 211.79270986745212,962.6642120765831 383,965 C 554.2072901325479,967.3357879234169 790.7255154639175,963.1752577319589 791,948 C 791.2744845360825,932.8247422680411 555.3052282768778,906.6347569955817 627,894 C 698.6947717231222,881.3652430044183 1078.0535714285716,882.2857142857144 1293,904 C 1507.9464285714284,925.7142857142856 1558.4804860088361,968.222385861561 1535,984 C 1511.5195139911639,999.777614138439 1414.0244845360826,988.8247422680413 1494,964 C 1573.9755154639174,939.1752577319587 1831.4215758468335,900.4786450662739 1932,895 C 2032.5784241531665,889.5213549337261 1976.2892120765832,917.2606774668631 1920,945 C 1920,945 1920,1080 1920,1080 Z" fill="#ffffff" opacity="0.525"/></svg>