<?xml version="1.0" standalone="no"?>
<svg xmlns:xlink="http://www.w3.org/1999/xlink" id="wave" style="transform:rotate(0deg); transition: 0.3s" viewBox="0 0 1440 240" version="1.1" xmlns="http://www.w3.org/2000/svg"><defs><linearGradient id="sw-gradient-0" x1="0" x2="0" y1="1" y2="0"><stop stop-color="rgba(24.399, 159.695, 141.246, 1)" offset="0%"/><stop stop-color="rgba(14.311, 93.668, 82.847, 1)" offset="100%"/></linearGradient></defs><path style="transform:translate(0, 0px); opacity:1" fill="url(#sw-gradient-0)" d="M0,96L11.4,80C22.9,64,46,32,69,32C91.4,32,114,64,137,84C160,104,183,112,206,128C228.6,144,251,168,274,172C297.1,176,320,160,343,132C365.7,104,389,64,411,52C434.3,40,457,56,480,72C502.9,88,526,104,549,112C571.4,120,594,120,617,100C640,80,663,40,686,56C708.6,72,731,144,754,180C777.1,216,800,216,823,184C845.7,152,869,88,891,76C914.3,64,937,104,960,100C982.9,96,1006,48,1029,28C1051.4,8,1074,16,1097,40C1120,64,1143,104,1166,128C1188.6,152,1211,160,1234,168C1257.1,176,1280,184,1303,164C1325.7,144,1349,96,1371,76C1394.3,56,1417,64,1440,84C1462.9,104,1486,136,1509,132C1531.4,128,1554,88,1577,80C1600,72,1623,96,1634,108L1645.7,120L1645.7,240L1634.3,240C1622.9,240,1600,240,1577,240C1554.3,240,1531,240,1509,240C1485.7,240,1463,240,1440,240C1417.1,240,1394,240,1371,240C1348.6,240,1326,240,1303,240C1280,240,1257,240,1234,240C1211.4,240,1189,240,1166,240C1142.9,240,1120,240,1097,240C1074.3,240,1051,240,1029,240C1005.7,240,983,240,960,240C937.1,240,914,240,891,240C868.6,240,846,240,823,240C800,240,777,240,754,240C731.4,240,709,240,686,240C662.9,240,640,240,617,240C594.3,240,571,240,549,240C525.7,240,503,240,480,240C457.1,240,434,240,411,240C388.6,240,366,240,343,240C320,240,297,240,274,240C251.4,240,229,240,206,240C182.9,240,160,240,137,240C114.3,240,91,240,69,240C45.7,240,23,240,11,240L0,240Z"/><defs><linearGradient id="sw-gradient-1" x1="0" x2="0" y1="1" y2="0"><stop stop-color="rgba(10.094, 89.115, 78.339, 1)" offset="0%"/><stop stop-color="rgba(20.742, 166.526, 146.646, 1)" offset="100%"/></linearGradient></defs><path style="transform:translate(0, 50px); opacity:0.9" fill="url(#sw-gradient-1)" d="M0,24L11.4,36C22.9,48,46,72,69,84C91.4,96,114,96,137,100C160,104,183,112,206,120C228.6,128,251,136,274,116C297.1,96,320,48,343,56C365.7,64,389,128,411,164C434.3,200,457,208,480,176C502.9,144,526,72,549,36C571.4,0,594,0,617,16C640,32,663,64,686,68C708.6,72,731,48,754,56C777.1,64,800,104,823,100C845.7,96,869,48,891,24C914.3,0,937,0,960,24C982.9,48,1006,96,1029,132C1051.4,168,1074,192,1097,188C1120,184,1143,152,1166,128C1188.6,104,1211,88,1234,104C1257.1,120,1280,168,1303,192C1325.7,216,1349,216,1371,180C1394.3,144,1417,72,1440,44C1462.9,16,1486,32,1509,56C1531.4,80,1554,112,1577,140C1600,168,1623,192,1634,204L1645.7,216L1645.7,240L1634.3,240C1622.9,240,1600,240,1577,240C1554.3,240,1531,240,1509,240C1485.7,240,1463,240,1440,240C1417.1,240,1394,240,1371,240C1348.6,240,1326,240,1303,240C1280,240,1257,240,1234,240C1211.4,240,1189,240,1166,240C1142.9,240,1120,240,1097,240C1074.3,240,1051,240,1029,240C1005.7,240,983,240,960,240C937.1,240,914,240,891,240C868.6,240,846,240,823,240C800,240,777,240,754,240C731.4,240,709,240,686,240C662.9,240,640,240,617,240C594.3,240,571,240,549,240C525.7,240,503,240,480,240C457.1,240,434,240,411,240C388.6,240,366,240,343,240C320,240,297,240,274,240C251.4,240,229,240,206,240C182.9,240,160,240,137,240C114.3,240,91,240,69,240C45.7,240,23,240,11,240L0,240Z"/></svg>